<svg width="121" height="88" viewBox="0 0 121 88" fill="none" xmlns="http://www.w3.org/2000/svg">
<path d="M109.994 0.291626H49.9521C43.948 0.291626 39.0355 5.20413 39.0355 11.2083V87.625L60.8688 65.7916H109.994C115.998 65.7916 120.91 60.8791 120.91 54.875V11.2083C120.91 5.20413 115.998 0.291626 109.994 0.291626ZM109.994 54.875H56.5021L49.9521 61.425V11.2083H109.994V54.875ZM17.2021 11.2083C13.9271 11.2083 11.7438 13.3916 11.7438 16.6666C11.7438 19.9416 13.9271 22.125 17.2021 22.125H28.1188V11.2083H17.2021ZM11.7438 33.0416C8.46881 33.0416 6.28548 35.225 6.28548 38.5C6.28548 41.775 8.46881 43.9583 11.7438 43.9583H28.1188V33.0416H11.7438ZM6.28548 54.875C3.01048 54.875 0.827148 57.0583 0.827148 60.3333C0.827148 63.6083 3.01048 65.7916 6.28548 65.7916H28.1188V54.875H6.28548Z" fill="white"/>
</svg>
