<svg width="112" height="129" viewBox="0 0 112 129" fill="none" xmlns="http://www.w3.org/2000/svg">
<path fill-rule="evenodd" clip-rule="evenodd" d="M107.694 60.2092C110.059 60.2092 111.975 62.126 111.975 64.4905C111.975 87.8126 97.9404 103.911 84.5793 113.932C77.8664 118.966 71.179 122.586 66.1813 124.946C63.6767 126.128 61.5816 127.002 60.0997 127.584C59.3584 127.875 58.7694 128.094 58.358 128.243C58.1523 128.317 57.991 128.374 57.8771 128.413C57.8202 128.433 57.7751 128.448 57.7422 128.46L57.7022 128.473L57.6892 128.477L57.6845 128.479C57.6826 128.48 57.6809 128.48 56.3271 124.419L57.6809 128.48C55.4378 129.228 53.0132 128.016 52.2655 125.772C51.5181 123.53 52.7291 121.107 54.9705 120.358C54.9714 120.358 54.9723 120.357 54.9732 120.357M54.9732 120.357L54.9863 120.353C55.0029 120.347 55.0315 120.337 55.0717 120.323C55.1522 120.295 55.2793 120.251 55.4498 120.189C55.791 120.066 56.3055 119.875 56.9688 119.615C58.296 119.093 60.2139 118.294 62.525 117.203C67.1586 115.015 73.313 111.678 79.4418 107.082C91.7642 97.8399 103.413 83.9741 103.413 64.4905C103.413 62.126 105.33 60.2092 107.694 60.2092" fill="white"/>
<path fill-rule="evenodd" clip-rule="evenodd" d="M52.0458 4.56226C52.0458 2.19779 53.9626 0.281006 56.3271 0.281006C73.8101 0.281006 87.0004 2.46685 95.8907 4.68942C100.334 5.80035 103.7 6.91948 105.987 7.77708C107.13 8.20585 108.004 8.56916 108.607 8.83326C108.909 8.96531 109.144 9.07256 109.311 9.15078C109.394 9.18989 109.461 9.22175 109.51 9.24582L109.572 9.27602L109.594 9.28662L109.602 9.29078L109.606 9.29256C109.607 9.29338 109.609 9.29416 107.694 13.1234L109.609 9.29416C111.059 10.0194 111.975 11.5018 111.975 13.1234V64.4904C111.975 66.8549 110.059 68.7717 107.694 68.7717C105.33 68.7717 103.413 66.8549 103.413 64.4904V15.9586C103.275 15.9055 103.131 15.8507 102.98 15.7944C100.987 15.0468 97.9314 14.0256 93.814 12.9963C85.5819 10.9382 73.0887 8.84351 56.3271 8.84351C53.9626 8.84351 52.0458 6.92672 52.0458 4.56226Z" fill="white"/>
<path fill-rule="evenodd" clip-rule="evenodd" d="M4.96002 60.2092C7.32449 60.2092 9.24127 62.126 9.24127 64.4905C9.24127 83.9741 20.8899 97.8399 33.2123 107.082C39.3411 111.678 45.4955 115.015 50.1291 117.203C52.4402 118.294 54.3581 119.093 55.6853 119.615C56.3485 119.875 56.8631 120.066 57.2043 120.189C57.3748 120.251 57.5019 120.295 57.5824 120.323C57.6079 120.332 57.6287 120.339 57.6448 120.345C57.654 120.348 57.6617 120.351 57.6678 120.353L57.6809 120.357C57.6817 120.357 57.6825 120.358 57.6833 120.358L57.6834 120.358C59.9249 121.107 61.136 123.53 60.3886 125.772C59.6409 128.016 57.2163 129.228 54.9732 128.48L56.327 124.419C54.9732 128.48 54.9715 128.48 54.9696 128.479L54.9649 128.477L54.9518 128.473L54.9118 128.46C54.879 128.448 54.8339 128.433 54.777 128.413C54.6631 128.374 54.5017 128.317 54.296 128.243C53.8847 128.094 53.2957 127.875 52.5544 127.584C51.0725 127.002 48.9774 126.128 46.4728 124.946C41.4751 122.586 34.7877 118.966 28.0748 113.932C14.7137 103.911 0.678772 87.8126 0.678772 64.4905C0.678772 62.126 2.59555 60.2092 4.96002 60.2092Z" fill="white"/>
<path fill-rule="evenodd" clip-rule="evenodd" d="M9.24136 15.9586C9.37949 15.9055 9.52364 15.8507 9.6738 15.7944C11.6675 15.0468 14.7228 14.0256 18.8402 12.9963C27.0723 10.9382 39.5655 8.84351 56.3271 8.84351C58.6916 8.84351 60.6084 6.92672 60.6084 4.56226C60.6084 2.19779 58.6916 0.281006 56.3271 0.281006C38.8441 0.281006 25.6538 2.46685 16.7635 4.68942C12.3198 5.80035 8.95423 6.91948 6.6673 7.77708C5.52393 8.20585 4.65039 8.56916 4.04672 8.83326C3.74489 8.96531 3.51053 9.07256 3.34366 9.15078C3.26022 9.18989 3.19365 9.22175 3.14396 9.24582L3.08207 9.27602L3.06061 9.28662L3.05225 9.29078L3.04867 9.29256C3.04704 9.29338 3.04548 9.29416 4.96011 13.1234L3.04548 9.29416C1.59506 10.0194 0.678864 11.5018 0.678864 13.1234V64.4904C0.678864 66.8549 2.59564 68.7717 4.96011 68.7717C7.32458 68.7717 9.24136 66.8549 9.24136 64.4904V15.9586Z" fill="white"/>
<path fill-rule="evenodd" clip-rule="evenodd" d="M93.9966 27.677C95.4153 29.5686 95.032 32.2521 93.1404 33.6707C76.6161 46.0639 66.2848 60.5257 60.0855 71.8912C56.9872 77.5714 54.9296 82.4628 53.6533 85.9088C53.0154 87.631 52.5737 88.9894 52.2955 89.9016C52.1563 90.3576 52.0582 90.7017 51.9968 90.9237C51.9661 91.0347 51.9447 91.1151 51.9319 91.1636L51.9185 91.215C51.9183 91.2159 51.9181 91.2168 51.9178 91.2177C51.5258 92.777 50.2931 93.9854 48.726 94.3461C47.1571 94.7071 45.5184 94.1576 44.4844 92.9237L44.4662 92.9022L44.4001 92.8239C44.3403 92.7532 44.2493 92.6461 44.1293 92.506C43.8893 92.2257 43.5333 91.8132 43.078 91.295C42.1667 90.2577 40.8614 88.8007 39.2947 87.1329C36.1393 83.7739 32.0134 79.6561 27.956 76.3842C26.1154 74.9 25.8266 72.2047 27.3108 70.3641C28.795 68.5235 31.4903 68.2347 33.3309 69.7189C37.8347 73.3507 42.2699 77.7941 45.5355 81.2704C45.7087 81.4548 45.8789 81.6368 46.046 81.8161C47.456 78.1458 49.5621 73.3027 52.5685 67.791C59.2108 55.6134 70.2825 40.111 88.0029 26.8207C89.8945 25.4021 92.5779 25.7854 93.9966 27.677Z" fill="white"/>
</svg>
