<svg width="99" height="124" viewBox="0 0 99 124" fill="none" xmlns="http://www.w3.org/2000/svg">
<path d="M86.9105 0.583374H31.0772C24.9355 0.583374 19.9105 5.60837 19.9105 11.75V22.9167C19.9105 25.9875 22.423 28.5 25.4938 28.5C28.5647 28.5 31.0772 25.9875 31.0772 22.9167V17.3334H86.9105V106.667H31.0772V101.083C31.0772 98.0125 28.5647 95.5 25.4938 95.5C22.423 95.5 19.9105 98.0125 19.9105 101.083V112.25C19.9105 118.392 24.9355 123.417 31.0772 123.417H86.9105C93.0522 123.417 98.0771 118.392 98.0771 112.25V11.75C98.0771 5.60837 93.0522 0.583374 86.9105 0.583374ZM19.9663 70.2075L9.24632 59.4875C7.29215 57.5334 4.10965 57.5334 2.15548 59.4875C0.201316 61.4417 0.201316 64.6242 2.15548 66.5784L15.9463 80.3692C18.1238 82.5467 21.6413 82.5467 23.8188 80.3692L56.4813 47.7067C58.4355 45.7525 58.4355 42.57 56.4813 40.6159C54.5272 38.6617 51.3447 38.6617 49.3905 40.6159L19.9663 70.2075Z" fill="white"/>
</svg>
