<svg width="308" height="673" viewBox="0 0 308 673" fill="none" xmlns="http://www.w3.org/2000/svg">
<path d="M-178.697 -588C-44.9468 -464.892 191.262 -197.929 247.543 34.3162M247.543 34.3162C259.827 85.0063 263.54 134.043 255.745 179.568C251.536 204.152 245.1 228.012 236.829 251.197M247.543 34.3162C252.617 12.0117 256.03 -10.7038 257.465 -33.8347C273.422 -291.016 -78.2206 -618.51 -256.036 -750.11M247.543 34.3162C242.236 57.6454 235.112 80.5251 226.532 102.96M236.829 251.197C172.903 430.376 -0.656738 569.188 -103.24 689.652M236.829 251.197C238.535 239.668 239.773 228.034 240.501 216.292C242.773 179.683 237.596 141.65 226.532 102.96M236.829 251.197C191.82 555.298 -178.969 785.313 -116.435 951.901M-103.24 689.652C-158.883 754.995 -193.644 814.939 -178.697 873M-103.24 689.652C-139.529 543.576 131.948 350.28 226.532 102.96M-103.24 689.652C-102.227 693.73 -100.974 697.77 -99.471 701.774M-273 -499.983C-120.495 -387.116 159.871 -130.154 226.532 102.96M-108.673 -416.5C16.9941 -358.333 275.627 -190.7 304.827 14.5C334.027 219.7 41.3274 373 -108.673 424" stroke="#001A75"/>
</svg>
