<svg width="132" height="43" viewBox="0 0 132 43" fill="none" xmlns="http://www.w3.org/2000/svg">
<g clip-path="url(#clip0_1_76)">
<path fill-rule="evenodd" clip-rule="evenodd" d="M34.0524 42.0335H22.8324L14.4187 9.9349C14.0194 8.45836 13.1715 7.15302 11.9242 6.5378C8.8115 4.99172 5.38148 3.76127 1.63965 3.1407V1.9049H19.7142C22.2087 1.9049 24.0797 3.76127 24.3915 5.91722L28.757 29.071L39.9715 1.9049H50.8797L34.0524 42.0335ZM57.1162 42.0335H46.5198L55.2453 1.9049H65.8417L57.1162 42.0335ZM79.5508 13.0216C79.8626 10.8603 81.7336 9.62447 83.9164 9.62447C87.3464 9.31418 91.0826 9.93475 94.2009 11.4755L96.0717 2.83562C92.9536 1.59982 89.5236 0.979248 86.4109 0.979248C76.1263 0.979248 68.6426 6.53765 68.6426 14.252C68.6426 20.1207 73.9436 23.2022 77.6853 25.0585C81.7336 26.9095 83.2926 28.1453 82.9809 29.9964C82.9809 32.7729 79.8626 34.0087 76.7499 34.0087C73.008 34.0087 69.2663 33.0832 65.8418 31.5371L63.9707 40.1823C67.7126 41.723 71.7608 42.3436 75.5026 42.3436C87.0345 42.6486 94.2009 37.0955 94.2009 28.7606C94.2009 18.2643 79.5508 17.6491 79.5508 13.0216ZM131.285 42.0335L122.872 1.9049H113.834C111.963 1.9049 110.093 3.1407 109.469 4.99172L93.889 42.0335H104.797L106.974 36.1701H120.377L121.624 42.0335H131.285ZM115.393 12.7111L118.506 27.8349H109.781L115.393 12.7111Z" fill="#172B85"/>
</g>
<defs>
<clipPath id="clip0_1_76">
<rect width="131" height="43" fill="white" transform="translate(0.827148)"/>
</clipPath>
</defs>
</svg>
