<svg width="120" height="74" viewBox="0 0 120 74" fill="none" xmlns="http://www.w3.org/2000/svg">
<path fill-rule="evenodd" clip-rule="evenodd" d="M60.3583 64.3305C54.0529 69.7718 45.8738 73.0566 36.9363 73.0566C16.9938 73.0566 0.827148 56.7023 0.827148 36.5283C0.827148 16.3543 16.9938 0 36.9363 0C45.8738 0 54.053 3.28482 60.3584 8.72614C66.6638 3.28487 74.8429 8.05855e-05 83.7805 8.05855e-05C103.723 8.05855e-05 119.89 16.3544 119.89 36.5284C119.89 56.7024 103.723 73.0567 83.7805 73.0567C74.8429 73.0567 66.6637 69.7719 60.3583 64.3305Z" fill="#ED0006"/>
<path fill-rule="evenodd" clip-rule="evenodd" d="M60.3584 64.3306C68.1224 57.6306 73.0454 47.6611 73.0454 36.5284C73.0454 25.3956 68.1224 15.4261 60.3584 8.72615C66.6638 3.28486 74.843 6.10352e-05 83.7805 6.10352e-05C103.723 6.10352e-05 119.89 16.3543 119.89 36.5284C119.89 56.7024 103.723 73.0566 83.7805 73.0566C74.843 73.0566 66.6638 69.7719 60.3584 64.3306Z" fill="#F9A000"/>
<path fill-rule="evenodd" clip-rule="evenodd" d="M60.3586 64.3304C68.1224 57.6305 73.0454 47.661 73.0454 36.5284C73.0454 25.3957 68.1224 15.4263 60.3586 8.72632C52.5947 15.4263 47.6717 25.3957 47.6717 36.5284C47.6717 47.661 52.5947 57.6305 60.3586 64.3304Z" fill="#FF5E00"/>
</svg>
