<svg width="134" height="56" viewBox="0 0 134 56" fill="none" xmlns="http://www.w3.org/2000/svg">
<path fill-rule="evenodd" clip-rule="evenodd" d="M18.5342 10.2286C21.0215 10.4384 23.5088 8.96967 25.0634 7.10754C26.592 5.19296 27.6025 2.62271 27.3434 0C25.1411 0.104908 22.4206 1.46872 20.8661 3.3833C19.4411 5.0356 18.2233 7.71077 18.5342 10.2286ZM48.1227 44.0093V3.12126H63.2797C71.1043 3.12126 76.5712 8.57649 76.5712 16.5495C76.5712 24.5226 71.0007 30.0302 63.0724 30.0302H54.3928V44.0093H48.1227ZM27.3172 10.7268C25.126 10.5991 23.1265 11.3939 21.5115 12.0358C20.4723 12.4489 19.5922 12.7987 18.9226 12.7987C18.1712 12.7987 17.2548 12.4302 16.2259 12.0164C14.8776 11.4743 13.3362 10.8544 11.7198 10.8842C8.01476 10.9366 4.56881 13.061 2.67743 16.4443C-1.20898 23.2109 1.66696 33.2296 5.42382 38.7373C7.26339 41.4649 9.46568 44.4548 12.3675 44.3499C13.6442 44.3012 14.5625 43.9067 15.5129 43.4985C16.6071 43.0285 17.7437 42.5403 19.5185 42.5403C21.2318 42.5403 22.3187 43.0158 23.3621 43.4722C24.3542 43.9062 25.307 44.323 26.7213 44.2975C29.7268 44.245 31.6182 41.5698 33.4578 38.8422C35.443 35.9148 36.3153 33.0577 36.4477 32.6241C36.4553 32.5993 36.4604 32.5825 36.4632 32.574C36.4601 32.5707 36.4356 32.5594 36.3924 32.5394L36.3923 32.5393C35.7287 32.2318 30.6564 29.8812 30.6077 23.5781C30.5589 18.2875 34.6309 15.6069 35.2719 15.185L35.2721 15.1849C35.311 15.1592 35.3373 15.142 35.3491 15.1329C32.7582 11.2513 28.7163 10.8317 27.3172 10.7268ZM88.0234 44.3236C91.9617 44.3236 95.6149 42.3041 97.2731 39.1044H97.4026V44.0089H103.206V23.6567C103.206 17.7556 98.5426 13.9526 91.3657 13.9526C84.707 13.9526 79.7842 17.808 79.6029 23.1059H85.2511C85.7175 20.5881 88.0234 18.9358 91.1844 18.9358C95.019 18.9358 97.1694 20.7454 97.1694 24.0763V26.3318L89.3448 26.8039C82.0643 27.2498 78.126 30.2659 78.126 35.5113C78.126 40.8092 82.1938 44.3236 88.0234 44.3236ZM89.707 39.472C86.3647 39.472 84.2402 37.846 84.2402 35.3544C84.2402 32.7841 86.287 31.2892 90.1993 31.0532L97.1689 30.6073V32.9153C97.1689 36.7444 93.9562 39.472 89.707 39.472ZM122.457 45.6087C119.943 52.7687 117.068 55.1291 110.953 55.1291C110.487 55.1291 108.932 55.0767 108.569 54.9718V50.0673C108.958 50.1198 109.917 50.1722 110.409 50.1722C113.181 50.1722 114.736 48.992 115.694 45.9234L116.264 44.1138L105.641 14.346H112.197L119.581 38.5012H119.71L127.094 14.346H133.468L122.457 45.6087ZM54.3922 8.47106H61.6209C67.0619 8.47106 70.171 11.4085 70.171 16.5752C70.171 21.742 67.0619 24.7056 61.595 24.7056H54.3922V8.47106Z" fill="black"/>
</svg>
