<svg width="134" height="55" viewBox="0 0 134 55" fill="none" xmlns="http://www.w3.org/2000/svg">
<path fill-rule="evenodd" clip-rule="evenodd" d="M61.8408 42.6092V26.6233H70.0914C73.4723 26.6233 76.3259 25.4905 78.6522 23.2562L79.2106 22.6898C83.4599 18.064 83.1808 10.8577 78.6522 6.57804C76.388 4.31232 73.2862 3.08506 70.0914 3.148H56.847V42.6092H61.8408ZM61.8414 21.7773V7.99416H70.2174C72.0167 7.99416 73.7229 8.68647 74.9949 9.9452C77.6938 12.5885 77.7558 16.9941 75.15 19.7318C73.8781 21.085 72.0788 21.8402 70.2174 21.7773H61.8414ZM102.505 17.7177C100.364 15.7352 97.4488 14.7282 93.7578 14.7282C89.0121 14.7282 85.4451 16.4905 83.0878 19.9835L87.4923 22.7841C89.1052 20.3925 91.3074 19.1967 94.099 19.1967C95.867 19.1967 97.5729 19.8576 98.9067 21.0534C100.209 22.1862 100.954 23.8226 100.954 25.5533V26.7177C99.0307 25.6477 96.6114 25.0813 93.6337 25.0813C90.1598 25.0813 87.3682 25.8995 85.29 27.5673C83.2119 29.2351 82.1573 31.4379 82.1573 34.2386C82.0952 36.7875 83.1808 39.2106 85.1039 40.8469C87.058 42.6091 89.5394 43.4903 92.455 43.4903C95.898 43.4903 98.6275 41.9483 100.706 38.8644H100.923V42.6091H105.699V25.9624C105.699 22.4694 104.645 19.7002 102.505 17.7177ZM88.9509 37.6373C87.9272 36.8821 87.3067 35.6548 87.3067 34.3331C87.3067 32.8541 87.9892 31.6269 89.3232 30.6513C90.6882 29.6758 92.3944 29.1723 94.4108 29.1723C97.2029 29.1409 99.3744 29.7702 100.926 31.029C100.926 33.1688 100.088 35.0254 98.4437 36.5988C96.9547 38.1093 94.9382 38.959 92.8287 38.959C91.4327 38.9904 90.0677 38.5184 88.9509 37.6373ZM116.432 54.4726L133.119 15.6093H127.691L119.968 34.9938H119.875L111.965 15.6093H106.537L117.486 40.8784L111.283 54.4726H116.432Z" fill="#3C4043"/>
<path d="M44.6004 23.1616C44.6004 21.6196 44.4763 20.0777 44.2282 18.5672H23.1674V27.2839H35.2331C34.7369 30.0846 33.124 32.6021 30.7666 34.1755V39.8398H37.9627C42.181 35.9062 44.6004 30.0846 44.6004 23.1616Z" fill="#4285F4"/>
<path d="M23.1683 45.3153C29.1857 45.3153 34.2726 43.3014 37.9636 39.8398L30.7676 34.1756C28.7515 35.5602 26.177 36.3469 23.1683 36.3469C17.3371 36.3469 12.4053 32.3504 10.6373 27.0008H3.22414V32.8539C7.00827 40.5007 14.7316 45.3153 23.1683 45.3153Z" fill="#34A853"/>
<path d="M10.638 27.0008C9.70732 24.2002 9.70732 21.1477 10.638 18.3156V12.494H3.22365C0.0283457 18.882 0.0283457 26.4344 3.22365 32.8225L10.638 27.0008Z" fill="#FBBC04"/>
<path d="M23.1683 8.96971C26.3631 8.90677 29.4339 10.134 31.7291 12.3683L38.1187 5.88581C34.0554 2.04668 28.7205 -0.0616891 23.1683 0.00124746C14.7316 0.00124746 7.00827 4.84736 3.22414 12.4942L10.6373 18.3473C12.4053 12.9662 17.3371 8.96971 23.1683 8.96971Z" fill="#EA4335"/>
</svg>
