<svg width="10" height="6" viewBox="0 0 10 6" fill="none" xmlns="http://www.w3.org/2000/svg">
<path d="M0.197629 0.207851C0.329381 0.0692835 0.485376 -4.15897e-07 0.665613 -4.08019e-07C0.84585 -4.00141e-07 1.00167 0.0692836 1.13307 0.207852L4.99341 4.26789L8.86693 0.193995C8.9899 0.0646649 9.14361 -3.7434e-08 9.32806 -2.93713e-08C9.51252 -2.13086e-08 9.67062 0.069284 9.80237 0.207852C9.93412 0.34642 10 0.510484 10 0.700045C10 0.889606 9.93412 1.05349 9.80237 1.19168L5.36232 5.84757C5.30962 5.90299 5.25253 5.94235 5.19104 5.96563C5.12956 5.98891 5.06368 6.00036 4.99341 5.99999C4.92314 5.99999 4.85727 5.98835 4.79578 5.96507C4.7343 5.94179 4.67721 5.90263 4.62451 5.84757L0.184454 1.17783C0.061485 1.0485 3.9638e-07 0.889051 4.04666e-07 0.69949C4.12952e-07 0.509929 0.0658766 0.34605 0.197629 0.207851Z" fill="white"/>
</svg>
