<svg width="196" height="70" viewBox="0 0 196 70" fill="none" xmlns="http://www.w3.org/2000/svg">
<g clip-path="url(#clip0_1_26)">
<path d="M16.92 34.7L7.85 25.63H22.36L31.43 34.7H16.92Z" fill="#AD1F27"/>
<path d="M30.52 35.61L39.59 44.68H25.08L16.01 35.61H30.52Z" fill="#222656"/>
<path d="M31.43 34.7L45.93 20.19H31.43L16.92 34.7H31.43Z" fill="#ED3438"/>
<path d="M16.01 35.61L1.5 50.12H16.01L30.52 35.61H16.01Z" fill="#3E4194"/>
<path d="M65.4996 34.2999C65.4996 33.2499 65.2496 32.4099 64.7496 31.8399C64.2496 31.2499 63.5396 30.9499 62.6596 30.9499C61.7996 30.9499 61.0696 31.2499 60.4796 31.8799C59.8896 32.4899 59.4996 33.2899 59.3696 34.2899H65.4996V34.2999ZM67.3596 35.8399H59.3297C59.3497 37.1099 59.6896 38.0899 60.3496 38.7699C61.0096 39.4699 61.8996 39.8199 63.0296 39.8199C64.2996 39.8199 65.4897 39.3899 66.5497 38.5499V40.2599C65.5497 40.9899 64.2296 41.3499 62.5896 41.3499C60.9796 41.3499 59.7197 40.8299 58.8196 39.7999C57.8896 38.7499 57.4296 37.2999 57.4296 35.4299C57.4296 33.6599 57.9296 32.2199 58.9296 31.0899C59.9296 29.9799 61.1796 29.4299 62.6796 29.4299C64.1596 29.4299 65.3196 29.9099 66.1096 30.8599C66.9296 31.8399 67.3396 33.1799 67.3396 34.8799L67.3596 35.8399Z" fill="white"/>
<path d="M79.2997 41.0699H77.4797V39.2699H77.4296C76.6796 40.6599 75.4996 41.3399 73.9296 41.3399C71.2197 41.3399 69.8596 39.7299 69.8596 36.4999V29.6999H71.6796V36.1999C71.6796 38.6099 72.5897 39.8199 74.4296 39.8199C75.3196 39.8199 76.0396 39.4799 76.6096 38.8399C77.1796 38.1799 77.4697 37.3199 77.4697 36.2499V29.6999H79.2896L79.2997 41.0699Z" fill="white"/>
<path d="M88.9196 31.5499C88.5996 31.2999 88.1497 31.1899 87.5296 31.1899C86.7597 31.1899 86.1196 31.5499 85.5996 32.2799C85.0797 33.0099 84.7997 34.0099 84.7997 35.2799V41.0799H82.9797V29.6999H84.7997V32.0399H84.8496C85.0996 31.2399 85.5097 30.6099 86.0296 30.1799C86.5797 29.7299 87.1696 29.4999 87.8297 29.4999C88.3097 29.4999 88.6696 29.5499 88.9196 29.6599V31.5499Z" fill="white"/>
<path d="M95.7796 30.9599C94.6196 30.9599 93.6897 31.3499 93.0097 32.1699C92.3297 32.9699 91.9896 34.0599 91.9896 35.4699C91.9896 36.8099 92.3297 37.8799 93.0097 38.6499C93.7096 39.4499 94.6196 39.8299 95.7796 39.8299C96.9596 39.8299 97.8696 39.4399 98.4896 38.6699C99.1296 37.9199 99.4496 36.8299 99.4496 35.4199C99.4496 33.9899 99.1296 32.8999 98.4896 32.1199C97.8696 31.3399 96.9596 30.9599 95.7796 30.9599ZM95.6396 41.3499C93.9596 41.3499 92.6197 40.8299 91.6197 39.7599C90.6197 38.6899 90.1197 37.2799 90.1197 35.5299C90.1197 33.6199 90.6396 32.1199 91.6897 31.0499C92.7397 29.9799 94.1497 29.4399 95.9196 29.4399C97.5996 29.4399 98.9396 29.9599 99.8796 31.0099C100.83 32.0599 101.31 33.4899 101.31 35.3499C101.31 37.1699 100.81 38.6199 99.7597 39.7199C98.7297 40.7999 97.3697 41.3499 95.6396 41.3499Z" fill="white"/>
<path d="M112.9 41.0699H104.46V25.1599H112.54V26.8399H106.33V32.1399H112.08V33.8199H106.33V39.3899H112.9V41.0699Z" fill="#3E4194"/>
<path d="M124.02 29.6999L120.2 35.4499L123.95 41.0699H121.84L119.61 37.3899C119.47 37.1599 119.29 36.8699 119.11 36.5299H119.06C119.01 36.5999 118.86 36.8699 118.54 37.3899L116.27 41.0699H114.18L118.05 35.4999L114.34 29.6999H116.48L118.66 33.5899C118.82 33.8899 118.98 34.1799 119.14 34.4799H119.19L122.03 29.6999H124.02Z" fill="#3E4194"/>
<path d="M133.91 40.5499C133.05 41.0999 132 41.3499 130.79 41.3499C129.18 41.3499 127.88 40.8299 126.88 39.7599C125.88 38.7099 125.38 37.3499 125.38 35.6699C125.38 33.7799 125.93 32.2799 126.99 31.1499C128.06 30.0099 129.49 29.4399 131.29 29.4399C132.29 29.4399 133.18 29.6199 133.93 29.9899V31.8499C133.09 31.2599 132.18 30.9599 131.22 30.9599C130.06 30.9599 129.11 31.3699 128.36 32.2099C127.61 33.0499 127.25 34.1399 127.25 35.5099C127.25 36.8499 127.59 37.8999 128.3 38.6699C129 39.4399 129.94 39.8299 131.12 39.8299C132.12 39.8299 133.05 39.4899 133.92 38.8299L133.91 40.5499Z" fill="white"/>
<path d="M146.09 41.0699H144.27V34.4999C144.27 32.1299 143.38 30.9499 141.63 30.9499C140.74 30.9499 139.99 31.2899 139.38 31.9699C138.77 32.6499 138.47 33.5399 138.47 34.6099V41.0699H136.65V24.2499H138.47V31.5699H138.52C139.38 30.1399 140.63 29.4299 142.25 29.4299C144.82 29.4299 146.09 30.9799 146.09 34.0699V41.0699Z" fill="white"/>
<path d="M155.85 35.3199L153.1 35.7099C152.26 35.8199 151.62 36.0299 151.19 36.3199C150.78 36.6399 150.55 37.1599 150.55 37.9299C150.55 38.4799 150.76 38.9299 151.14 39.2899C151.55 39.6299 152.07 39.8099 152.73 39.8099C153.64 39.8099 154.37 39.4899 154.96 38.8499C155.55 38.2099 155.85 37.4199 155.85 36.4399V35.3199ZM157.67 41.0699H155.85V39.2999H155.8C155 40.6599 153.84 41.3499 152.3 41.3499C151.16 41.3499 150.28 41.0499 149.64 40.4399C149 39.8499 148.68 39.0499 148.68 38.0499C148.68 35.9399 149.93 34.6799 152.43 34.3399L155.84 33.8599C155.84 31.9299 155.07 30.9499 153.5 30.9499C152.14 30.9499 150.91 31.4299 149.79 32.3599V30.4999C150.9 29.7999 152.2 29.4299 153.66 29.4299C156.32 29.4299 157.66 30.8399 157.66 33.6799V41.0699H157.67Z" fill="white"/>
<path d="M170.53 41.0699H168.71V34.5699C168.71 32.1599 167.82 30.9499 166.07 30.9499C165.16 30.9499 164.41 31.2899 163.8 31.9699C163.21 32.6499 162.91 33.5199 162.91 34.5599V41.0599H161.09V29.6999H162.91V31.5899H162.96C163.82 30.1599 165.05 29.4299 166.69 29.4299C167.94 29.4299 168.9 29.8399 169.56 30.6399C170.22 31.4399 170.54 32.5999 170.54 34.1199L170.53 41.0699Z" fill="white"/>
<path d="M181.86 35.9299V34.2499C181.86 33.3399 181.56 32.5699 180.95 31.9299C180.34 31.2699 179.56 30.9499 178.65 30.9499C177.54 30.9499 176.65 31.3599 176.01 32.1799C175.37 32.9999 175.06 34.1599 175.06 35.6399C175.06 36.9099 175.38 37.9099 175.97 38.6899C176.58 39.4399 177.4 39.8299 178.4 39.8299C179.42 39.8299 180.26 39.4699 180.9 38.7399C181.54 37.9999 181.86 37.0699 181.86 35.9299ZM183.68 40.1599C183.68 44.3199 181.68 46.4099 177.68 46.4099C176.27 46.4099 175.04 46.1399 174 45.6099V43.7899C175.27 44.4999 176.5 44.8599 177.66 44.8599C180.48 44.8599 181.87 43.3799 181.87 40.3999V39.1499H181.82C180.96 40.6099 179.66 41.3299 177.91 41.3299C176.5 41.3299 175.36 40.8299 174.5 39.8099C173.64 38.8099 173.2 37.4499 173.2 35.7399C173.2 33.8099 173.68 32.2599 174.59 31.1199C175.52 29.9799 176.8 29.4099 178.41 29.4099C179.96 29.4099 181.09 30.0199 181.82 31.2499H181.87V29.6799H183.69L183.68 40.1599Z" fill="white"/>
<path d="M194.64 34.2999C194.64 33.2499 194.39 32.4099 193.89 31.8399C193.39 31.2499 192.68 30.9499 191.8 30.9499C190.94 30.9499 190.21 31.2499 189.62 31.8799C189.03 32.4899 188.64 33.2899 188.51 34.2899H194.64V34.2999ZM196.5 35.8399H188.47C188.49 37.1099 188.83 38.0899 189.49 38.7699C190.15 39.4699 191.04 39.8199 192.17 39.8199C193.44 39.8199 194.63 39.3899 195.69 38.5499V40.2599C194.69 40.9899 193.37 41.3499 191.73 41.3499C190.12 41.3499 188.86 40.8299 187.95 39.7999C187.02 38.7499 186.56 37.2999 186.56 35.4299C186.56 33.6599 187.06 32.2199 188.06 31.0899C189.06 29.9799 190.31 29.4299 191.81 29.4299C193.29 29.4299 194.45 29.9099 195.24 30.8599C196.06 31.8399 196.47 33.1799 196.47 34.8799L196.5 35.8399Z" fill="white"/>
<path d="M97.5696 50.9799L94.7696 46.6399C94.6896 46.5299 94.6396 46.4099 94.5896 46.2999H94.5696C94.5896 46.4199 94.5996 46.6699 94.5996 47.0499V50.9899H93.9596V45.5399H94.7896L97.5196 49.8099C97.6296 49.9899 97.7096 50.1099 97.7396 50.1799H97.7597C97.7397 50.0199 97.7197 49.7499 97.7197 49.3799V45.5399H98.3596V50.9799H97.5696ZM90.3396 46.0099C89.7596 46.0099 89.3096 46.2099 88.9496 46.6299C88.5896 47.0399 88.4097 47.5799 88.4097 48.2599C88.4097 48.9299 88.5797 49.4699 88.9296 49.8799C89.2796 50.2899 89.7297 50.4899 90.2896 50.4899C90.8896 50.4899 91.3596 50.2999 91.7096 49.9099C92.0496 49.5199 92.2197 48.9699 92.2197 48.2699C92.2197 47.5499 92.0596 46.9899 91.7197 46.5999C91.3896 46.2099 90.9196 46.0099 90.3396 46.0099ZM90.2896 51.0699C89.5197 51.0699 88.8997 50.8099 88.4397 50.3099C87.9697 49.7999 87.7396 49.1299 87.7396 48.3199C87.7396 47.4499 87.9796 46.7499 88.4496 46.2299C88.9196 45.6999 89.5696 45.4399 90.3896 45.4399C91.1396 45.4399 91.7396 45.6899 92.1996 46.1999C92.6696 46.7099 92.8896 47.3699 92.8896 48.1799C92.8896 49.0699 92.6597 49.7799 92.1796 50.2899C91.7096 50.8099 91.0797 51.0699 90.2896 51.0699ZM83.2796 46.1099V50.4099H84.0896C84.8096 50.4099 85.3596 50.2199 85.7597 49.8299C86.1597 49.4499 86.3496 48.8999 86.3496 48.1999C86.3496 46.8099 85.6096 46.1099 84.1197 46.1099H83.2796ZM82.6396 50.9799V45.5299H84.1396C86.0596 45.5299 87.0196 46.4199 87.0196 48.1799C87.0196 49.0199 86.7597 49.6999 86.2197 50.2099C85.6897 50.7199 84.9697 50.9699 84.0797 50.9699L82.6396 50.9799ZM81.2096 50.9799H80.4296L77.6296 46.6399C77.5496 46.5299 77.4996 46.4099 77.4496 46.2999H77.4296C77.4496 46.4199 77.4596 46.6699 77.4596 47.0499V50.9899H76.8196V45.5399H77.6396L80.3697 49.8099C80.4797 49.9899 80.5596 50.1099 80.5896 50.1799H80.6096C80.5897 50.0199 80.5696 49.7499 80.5696 49.3799V45.5399H81.2096V50.9799ZM73.1897 46.0099C72.6096 46.0099 72.1597 46.2099 71.7997 46.6299C71.4397 47.0399 71.2597 47.5799 71.2597 48.2599C71.2597 48.9299 71.4296 49.4699 71.7796 49.8799C72.1296 50.2899 72.5797 50.4899 73.1396 50.4899C73.7396 50.4899 74.2096 50.2999 74.5596 49.9099C74.8996 49.5199 75.0696 48.9699 75.0696 48.2699C75.0696 47.5499 74.9096 46.9899 74.5696 46.5999C74.2396 46.2099 73.7697 46.0099 73.1897 46.0099ZM73.1396 51.0699C72.3697 51.0699 71.7496 50.8099 71.2896 50.3099C70.8196 49.7999 70.5896 49.1299 70.5896 48.3199C70.5896 47.4499 70.8297 46.7499 71.2997 46.2299C71.7697 45.6999 72.4196 45.4399 73.2396 45.4399C73.9996 45.4399 74.5897 45.6899 75.0497 46.1999C75.5197 46.7099 75.7396 47.3699 75.7396 48.1799C75.7396 49.0699 75.5097 49.7799 75.0296 50.2899C74.5696 50.8099 73.9397 51.0699 73.1396 51.0699ZM70.1096 50.9799H67.2796V45.5299H67.9196V50.3999H70.1096V50.9799Z" fill="white"/>
<path d="M147.79 50.9799H147.15V47.3199C147.15 47.0299 147.17 46.6799 147.2 46.2599H147.18C147.13 46.5099 147.07 46.6799 147.02 46.7899L145.16 50.9799H144.85L142.99 46.8199C142.94 46.6999 142.88 46.5099 142.83 46.2599H142.81C142.83 46.4799 142.84 46.8399 142.84 47.3299V50.9799H142.22V45.5299H143.06L144.73 49.3299C144.86 49.6199 144.94 49.8399 144.98 49.9799H145C145.11 49.6799 145.2 49.4599 145.27 49.3099L146.97 45.5299H147.77L147.79 50.9799Z" fill="white"/>
<path d="M149.86 45.5299H149.22V50.9799H149.86V45.5299Z" fill="white"/>
<path d="M154.03 48.8799L153.17 46.5499C153.14 46.4799 153.11 46.3599 153.08 46.1899H153.06C153.04 46.3499 153.01 46.4599 152.97 46.5599L152.12 48.8799H154.03ZM155.52 50.9799H154.81L154.23 49.4499H151.92L151.38 50.9799H150.67L152.76 45.5299H153.42L155.52 50.9799Z" fill="white"/>
<path d="M161.88 50.9799H161.24V47.3199C161.24 47.0299 161.26 46.6799 161.29 46.2599H161.28C161.23 46.5099 161.17 46.6799 161.12 46.7899L159.26 50.9799H158.95L157.09 46.8199C157.04 46.6999 156.98 46.5099 156.93 46.2599H156.91C156.93 46.4799 156.94 46.8399 156.94 47.3299V50.9799H156.33V45.5299H157.17L158.84 49.3299C158.97 49.6199 159.05 49.8399 159.09 49.9799H159.11C159.22 49.6799 159.3 49.4599 159.37 49.3099L161.07 45.5299H161.87L161.88 50.9799Z" fill="white"/>
<path d="M163.93 45.5299H163.29V50.9799H163.93V45.5299Z" fill="white"/>
<path d="M111.74 50.9799H111.1V47.3199C111.1 47.0299 111.12 46.6799 111.15 46.2599H111.13C111.08 46.5099 111.02 46.6799 110.97 46.7899L109.11 50.9799H108.8L106.94 46.8199C106.89 46.6999 106.83 46.5099 106.78 46.2599H106.76C106.78 46.4799 106.79 46.8399 106.79 47.3299V50.9799H106.18V45.5299H107.02L108.69 49.3299C108.82 49.6199 108.9 49.8399 108.94 49.9799H108.96C109.07 49.6799 109.15 49.4599 109.22 49.3099L110.92 45.5299H111.72L111.74 50.9799Z" fill="white"/>
<path d="M115.91 48.8799L115.05 46.5499C115.02 46.4799 114.99 46.3599 114.96 46.1899H114.94C114.92 46.3499 114.89 46.4599 114.85 46.5599L114 48.8799H115.91ZM117.39 50.9799H116.68L116.1 49.4499H113.79L113.25 50.9799H112.54L114.63 45.5299H115.29L117.39 50.9799Z" fill="white"/>
<path d="M118.83 46.1099V50.4099H119.64C120.36 50.4099 120.91 50.2199 121.31 49.8299C121.71 49.4499 121.9 48.8999 121.9 48.1999C121.9 46.8099 121.16 46.1099 119.67 46.1099H118.83ZM118.19 50.9799V45.5299H119.69C121.61 45.5299 122.57 46.4199 122.57 48.1799C122.57 49.0199 122.31 49.6999 121.77 50.2099C121.24 50.7199 120.52 50.9699 119.63 50.9699L118.19 50.9799Z" fill="white"/>
<path d="M124.29 46.1099V48.0899H125.15C125.31 48.0899 125.46 48.0699 125.59 48.0199C125.73 47.9699 125.85 47.8999 125.95 47.8099C126.04 47.7199 126.12 47.6099 126.18 47.4799C126.24 47.3499 126.27 47.1999 126.27 47.0399C126.27 46.7499 126.18 46.5199 125.99 46.3599C125.8 46.1999 125.52 46.1199 125.17 46.1199L124.29 46.1099ZM127.56 50.9799H126.8L125.89 49.4499C125.8 49.2999 125.73 49.1899 125.65 49.0799C125.57 48.9799 125.49 48.8999 125.41 48.8299C125.32 48.7699 125.24 48.7199 125.15 48.6999C125.05 48.6699 124.95 48.6499 124.82 48.6499H124.3V50.9699H123.66V45.5199H125.29C125.53 45.5199 125.75 45.5499 125.95 45.6099C126.15 45.6699 126.32 45.7699 126.47 45.8799C126.62 45.9999 126.73 46.1499 126.82 46.3399C126.91 46.5199 126.94 46.7299 126.94 46.9699C126.94 47.1599 126.91 47.3399 126.85 47.4899C126.8 47.6499 126.71 47.7899 126.61 47.9199C126.5 48.0399 126.38 48.1499 126.23 48.2399C126.08 48.3299 125.91 48.3899 125.73 48.4399V48.4599C125.82 48.4999 125.89 48.5499 125.96 48.5899C126.03 48.6399 126.09 48.7099 126.15 48.7799C126.2 48.8499 126.27 48.9399 126.33 49.0199C126.38 49.1099 126.45 49.2099 126.52 49.3299L127.56 50.9799Z" fill="white"/>
<path d="M131.02 46.1099V50.4099H131.83C132.55 50.4099 133.1 50.2199 133.5 49.8299C133.9 49.4499 134.09 48.8999 134.09 48.1999C134.09 46.8099 133.35 46.1099 131.86 46.1099H131.02ZM130.38 50.9799V45.5299H131.88C133.8 45.5299 134.76 46.4199 134.76 48.1799C134.76 49.0199 134.5 49.6999 133.96 50.2099C133.43 50.7199 132.71 50.9699 131.82 50.9699L130.38 50.9799Z" fill="white"/>
<path d="M128.94 45.5299H128.3V50.9799H128.94V45.5299Z" fill="white"/>
<path d="M102.28 47.2399C102.82 47.2399 103.26 47.6799 103.26 48.2199C103.26 48.7599 102.82 49.1999 102.28 49.1999C101.74 49.1999 101.3 48.7599 101.3 48.2199C101.3 47.6799 101.74 47.2399 102.28 47.2399Z" fill="#959899"/>
<path d="M138.49 47.2399C139.03 47.2399 139.47 47.6799 139.47 48.2199C139.47 48.7599 139.03 49.1999 138.49 49.1999C137.95 49.1999 137.51 48.7599 137.51 48.2199C137.51 47.6799 137.95 47.2399 138.49 47.2399Z" fill="#959899"/>
<path d="M160.08 23.57C160.39 23.76 160.84 23.92 161.31 23.92C162.01 23.92 162.42 23.55 162.42 23.01C162.42 22.51 162.14 22.23 161.42 21.95C160.55 21.64 160.02 21.19 160.02 20.44C160.02 19.61 160.71 19 161.74 19C162.28 19 162.68 19.13 162.92 19.26L162.73 19.82C162.56 19.73 162.2 19.57 161.72 19.57C160.99 19.57 160.72 20 160.72 20.37C160.72 20.87 161.04 21.11 161.78 21.4C162.68 21.75 163.14 22.18 163.14 22.96C163.14 23.78 162.53 24.49 161.28 24.49C160.77 24.49 160.21 24.34 159.92 24.15L160.08 23.57Z" fill="white"/>
<path d="M166.82 21.91H164.75V23.83H167.05V24.41H164.06V19.09H166.93V19.67H164.74V21.35H166.81V21.91H166.82Z" fill="white"/>
<path d="M171.67 24.24C171.42 24.37 170.91 24.49 170.27 24.49C168.77 24.49 167.64 23.54 167.64 21.8C167.64 20.13 168.77 19.01 170.42 19.01C171.08 19.01 171.5 19.15 171.68 19.25L171.51 19.81C171.25 19.68 170.88 19.59 170.44 19.59C169.19 19.59 168.36 20.39 168.36 21.78C168.36 23.08 169.11 23.92 170.4 23.92C170.82 23.92 171.24 23.83 171.52 23.7L171.67 24.24Z" fill="white"/>
<path d="M173.22 19.09V22.24C173.22 23.43 173.75 23.94 174.46 23.94C175.25 23.94 175.75 23.42 175.75 22.24V19.09H176.44V22.19C176.44 23.82 175.58 24.49 174.43 24.49C173.34 24.49 172.52 23.87 172.52 22.22V19.09H173.22Z" fill="white"/>
<path d="M177.64 19.16C177.99 19.09 178.48 19.05 178.96 19.05C179.69 19.05 180.17 19.18 180.5 19.48C180.77 19.72 180.92 20.08 180.92 20.49C180.92 21.19 180.48 21.66 179.92 21.85V21.87C180.33 22.01 180.58 22.39 180.7 22.94C180.87 23.68 181 24.19 181.11 24.4H180.4C180.31 24.25 180.19 23.79 180.04 23.13C179.88 22.4 179.6 22.12 178.97 22.1H178.32V24.4H177.63V19.16H177.64ZM178.33 21.58H179.03C179.76 21.58 180.23 21.18 180.23 20.57C180.23 19.88 179.73 19.58 179.01 19.58C178.68 19.58 178.44 19.61 178.33 19.64V21.58Z" fill="white"/>
<path d="M182.57 19.09V24.41H181.88V19.09H182.57Z" fill="white"/>
<path d="M184.78 19.67H183.16V19.09H187.1V19.67H185.47V24.41H184.78V19.67Z" fill="white"/>
<path d="M188.38 19.09V24.41H187.69V19.09H188.38Z" fill="white"/>
<path d="M192.34 21.91H190.27V23.83H192.57V24.41H189.58V19.09H192.45V19.67H190.26V21.35H192.33V21.91H192.34Z" fill="white"/>
<path d="M193.38 23.57C193.69 23.76 194.14 23.92 194.61 23.92C195.31 23.92 195.72 23.55 195.72 23.01C195.72 22.51 195.44 22.23 194.72 21.95C193.85 21.64 193.32 21.19 193.32 20.44C193.32 19.61 194.01 19 195.04 19C195.58 19 195.98 19.13 196.22 19.26L196.03 19.82C195.86 19.73 195.5 19.57 195.02 19.57C194.29 19.57 194.02 20 194.02 20.37C194.02 20.87 194.34 21.11 195.08 21.4C195.98 21.75 196.44 22.18 196.44 22.96C196.44 23.78 195.83 24.49 194.58 24.49C194.07 24.49 193.51 24.34 193.22 24.15L193.38 23.57Z" fill="white"/>
</g>
<defs>
<clipPath id="clip0_1_26">
<rect width="195" height="70" fill="white" transform="translate(0.5)"/>
</clipPath>
</defs>
</svg>
