<svg width="64" height="74" viewBox="0 0 64 74" fill="none" xmlns="http://www.w3.org/2000/svg">
<path d="M32.3271 0L0.827148 10.5V42C0.827148 59.3988 14.9283 73.5 32.3271 73.5C49.726 73.5 63.8271 59.3988 63.8271 42V10.5L32.3271 0ZM57.9209 42C57.9209 56.134 46.4611 67.5938 32.3271 67.5938C18.1932 67.5938 6.7334 56.134 6.7334 42V14.9297L32.3271 5.90625L57.9209 14.9297V42Z" fill="white"/>
<path d="M21.3678 33.7231C21.0941 33.4481 20.7688 33.2299 20.4105 33.081C20.0522 32.9321 19.6681 32.8555 19.2801 32.8555C18.8922 32.8555 18.508 32.9321 18.1497 33.081C17.7915 33.2299 17.4661 33.4481 17.1924 33.7231C16.9175 33.9968 16.6993 34.3221 16.5504 34.6804C16.4015 35.0386 16.3249 35.4228 16.3249 35.8107C16.3249 36.1987 16.4015 36.5829 16.5504 36.9411C16.6993 37.2994 16.9175 37.6247 17.1924 37.8984L27.8073 48.5133L27.9795 48.6855C28.2384 48.9449 28.546 49.1507 28.8845 49.2911C29.223 49.4315 29.5859 49.5038 29.9524 49.5038C30.3189 49.5038 30.6818 49.4315 31.0203 49.2911C31.3588 49.1507 31.6663 48.9449 31.9252 48.6855L50.2592 30.3516C50.5186 30.0927 50.7244 29.7851 50.8648 29.4466C51.0052 29.1081 51.0775 28.7452 51.0775 28.3787C51.0775 28.0122 51.0052 27.6493 50.8648 27.3108C50.7244 26.9723 50.5186 26.6648 50.2592 26.4059L50.0295 26.1762C49.7706 25.9168 49.4631 25.711 49.1246 25.5706C48.7861 25.4302 48.4232 25.3579 48.0567 25.3579C47.6902 25.3579 47.3273 25.4302 46.9888 25.5706C46.6503 25.711 46.3427 25.9168 46.0838 26.1762L29.9483 42.3035L21.3678 33.7231Z" fill="white"/>
</svg>
